<?xml version="1.0" encoding="UTF-8"?>
<svg viewBox="0 0 793.7 1122.5" xmlns="http://www.w3.org/2000/svg">
 <path d="m284.59 131.82c-9.4814-0.067108-18.871 9.6562-24.719 16.031-15.438 16.825-27.262 33.512-23 57.438 1.725 9.6625 5.6938 12.45 7.4688 17.5 1.2125 3.4625 0.78126 7.5875 1.0938 11.25 0.050003 2.175 0.66249 5.4438-1.5e-5 7.4688-1.05 4.0375-4.3937 5.5125-7.7187 7.375-8.6375 4.8125-23.388 20.094-27.562 8.8438-3.9875-10.712 14.478-26.689 12.562-31.188-1.2725-2.9891-8.95 3.5875-11.25 10-1.8625-1.6375-3.2687-2.3438-3.8437-5.0312-0.83751-3.925 5.8687-19.631 6.9687-24.969 0.53752-2.5375 1.1875-10.612-3.9375-8.25-2.7 1.2375-3.9375 5.6-4.5625 8.25l-3.375 25c-11.088-6.475-9.4562-25.569-16.25-25-6.7938 0.56874 0.77499 9.3375 5 15 1.4625 1.9625 5.5812 6.8125 4.4688 9.4375-1.075 2.5625-4.3937 0.0625-5.5938-0.9375-4.275-3.5875-10.056-14.288-14.594-11.938-3.525 1.825 0.55002 6.6188 2.125 8.2188 6.475 6.525 12.881 7.2312 17.344 16.469l-5.875-4.5625c-2.7274-2.1213-7.7251-5.5886-8.2812-1.0625-0.5562 4.5261 3.8962 4.0101 6.1875 6.2812 2.189 2.1696 5.0755 4.0434 7.5 6.9688 7.05 8.5125 5.4562 25.619 16.719 28.031 11.9 2.5375 10.825-13.681 26.25-13.156-12.725 19.488-15.5 25.438-22.125 47.5-2.4625 8.1875-4.0125 11.112-4.125 20-0.22502 19.125 2.9188 20.725 3.6562 32.5 0.33752 5.2625-0.19373 9.6812-4.9688 12.844-5.4125 3.5875-10.588 0.60623-14.938-3.0938-6.4875-5.5375-17.438-19.5-16.688-28.5 0.64999-7.775 7.1-13.238 8.3125-18.75 1.075-4.8875-2.2-7.3687-4.75-6.0312-2.475 1.2875-3.5625 7.2062-4.1875 9.7812-2.2125 9.0125-1.525 9.8875-7.6875 17.5l-6.75-19.625c-2.9625-4.0875-8.5625-2.9125-8.5625 1.0625-1.5e-5 5.0375 8.375 11.8 11.562 18.562-13.5-1.8875-14.694-13.8-22.406-14.938-3.3625-0.48749-5.5438 2.8688-2.0312 6.7812 4.0125 4.475 11.75 5.7812 18.188 13.156-8.3875-2.45-24.55-8.0375-32.5-8.5-9.2-0.53751-9.6625 6.2812-4.6875 9.5938 12.175 8.15 35.712-6.1625 42.625 10.188 5.9375 14.038-22.519 8.75-18.344 21.062 1.525 4.5125 7 4.1437 10.312 1.9062 6.475-4.375 13.125-21.244 20.438-18.469 4.6625 1.7625 11.669 13.238 19.656 17.875 1.7696 1.0275 16.741 9.4192 22.25 17.781l0.1562-1e-4 0.4447 4.077c1.3029 5.3651 1.154 42.121 6.3365 60.048 7.3204 22.674 24.164 40.948 41.594 56.469 11.282 10.046 30.272 24.244 38.094 36.594 3.8423 6.0587 5.6484 13.048 7.6875 19.875 7.4739 25.152-0.77814 60.007-5.2812 85.406-1.8568 10.47-4.8056 18.951-3.4688 29.844 4.735-8.1953 9.7156-28.008 12.656-37.938 3.3328-11.281 10.032-31.96 11.594-42.875 2.5542-17.884-0.13141-36.181-5.625-53.219-4.6218-14.311-16.877-29.879-28.125-39.688l-15.375-12.25c-10.92-9.2162-20.234-23.265-24.625-36.875-4.6708-14.475-4.0792-46.82-0.10709-62.923l1.1383-7.8579h-0.0311c-1.3878-13.881 7.643-29.313 16.938-35.5 4.0125-2.6625 7.95-3.1375 12.5-4.1875 9.7375-2.25 24.769-5.4375 31.594 4.6875 3.725 5.5375-1.4875 19.781 7.1875 20.469 7 0.56253 7.5-8.3312 5.625-13.094-3.4125-8.65-11.856-17.088-20.656-20 6.3-7.6 10.212-3.5 17.5 0.75 6.6 3.85 15.9 9.0063 23.75 8.6562 3.9625-0.17499 15.912-3.2062 13.438-9.1562-1.75-4.225-8.4625-3.975-12.188-4-11.462-0.0625-28.35 0.75003-36.25-8.75 11.075-1.4625 26.612-0.53748 36.25-5-2.575-6.575-6.1626-6.1499-12.5-4.6875-10.062 2.325-14.438 6.6125-26.25 7.1875 3.9625-10.1 11.056-12.525 12.781-18.75 1.3875-5.0125-2.7688-9.6813-7.2812-5.7813-7.125 6.15-4.2 18.381-15.5 22.031 0.42499-9.1875 3.8-16.475-8.75-17.5 0.69998 12.75 8.7125 18.188 2.125 26.125-10.175 12.238-43.919 13.988-46.844-6.125-2.775-19.125 19.844-33.75 24.594-47.5 2-5.775 1.5625-13.962 0.875-20-0.33752-2.95-1.0063-6.8938 2.1562-8.6563 3-1.6625 5.9187 0.54376 7.9688 2.5938 4.1875 4.1625 5.3375 9.15 12.875 9.625 11.588 0.73749 23-10.569 31.25-12.531 7.875-2.2875 10.688 3.125 21.25 0 0.90082-0.59424 1.849-1.097 1.875-2.125 0.42554-2.0848-3.8162-4.104-7.2812-2.9063-7.5725 2.6175-11.12 0.78906-11.969 1.3438 6.2858-10.738 23.484-0.66812 32-6.3125 3.3875-2.25 3.3875-7.2125-4.625-7.125-4.1813 3.6902-30.462 7.0427-28.75 6.0938-0.4003-6.8053 17.157-12.701 21.438-16.875 5.8029-4.5014 2.5237-11.522-3.75-8.125-5.2302 4.4387-17.674 17.235-18.25 14.406-0.67938-2.0747 11.997-13.23 4.3125-15.656-5.7555-2.2492-4.3375 8-10 20 0.29901-0.38045 0.36014-17.154-5.1875-15-8.3375 9.6375 7.375 14.044 0 23.656-13.025 16.238-30.188 5.2188-38.625-8.6563-1.5125-2.475-4.8062-8.4062-4.8438-11.219-0.050018-4.45 4.2562-6.975 7.4062-9.3125 6.2625-4.65 8.8625-6.6313 13.312-13.219 12.875-19.038 8.175-36.338 5.125-57.5-1.5875-11.038-3.725-22.525-17.188-24.562-0.63202-0.095291-1.2429-0.15178-1.875-0.15625l-2e-4 -1e-4z" stroke="#000" stroke-width="1.25"/>
</svg>
